<?xml version="1.0" encoding="utf-8"?>
<svg version="1.1" id="mdi-movie-open-outline" xmlns="http://www.w3.org/2000/svg" xmlns:xlink="http://www.w3.org/1999/xlink"
	 x="0px" y="0px" viewBox="0 0 512 512" style="enable-background:new 0 0 512 512;" xml:space="preserve">
<g>
	<path d="M482.93,7.64l-98.49,19.55l68.67,88.72l49.37-10.02L482.93,7.64 M310.76,41.73l-49.37,9.77l68.92,88.47l49.12-9.77
		L310.76,41.73 M187.96,65.79l-49.37,10.28l68.92,88.47l49.12-9.77L187.96,65.79 M64.91,90.85l-24.56,4.76
		C13.28,100.87-4.51,127.44,1,154.5l9.77,49.12l122.8-24.31L64.91,90.85 M461.88,253.74v200.49H60.9V253.74H461.88 M512,203.62
		H10.78v250.61c0,27.82,22.56,50.12,50.12,50.12h400.98c27.82,0,50.12-22.3,50.12-50.12V203.62z"/>
</g>
</svg>
