<?xml version="1.0" encoding="utf-8"?>
<svg version="1.1" id="Layer_1" xmlns="http://www.w3.org/2000/svg" xmlns:xlink="http://www.w3.org/1999/xlink" x="0px" y="0px"
	 viewBox="0 0 512 512" style="enable-background:new 0 0 512 512;" xml:space="preserve">
<g>
	<path d="M230.4,25.6v25.6c49.6,0,94.2,20,126.7,52.5c32.5,32.5,52.5,77.1,52.5,126.7c0,49.6-20,94.2-52.5,126.7
		c-32.5,32.5-77.1,52.5-126.7,52.5c-49.6,0-94.2-20-126.7-52.5C71.2,324.6,51.2,280,51.2,230.4c0-49.6,20-94.2,52.5-126.7
		c32.5-32.5,77.1-52.5,126.7-52.5V25.6V0C103.1,0,0,103.1,0,230.4c0,127.3,103.1,230.4,230.4,230.4c127.3,0,230.4-103.1,230.4-230.4
		C460.8,103.1,357.7,0,230.4,0V25.6z"/>
	<path d="M504.5,468.3L393.1,356.9c-10-10-26.2-10-36.2,0c-10,10-10,26.2,0,36.2l111.4,111.4c10,10,26.2,10,36.2,0
		C514.5,494.5,514.5,478.3,504.5,468.3"/>
</g>
</svg>
