<?xml version="1.0" encoding="utf-8"?>
<!-- Generator: Adobe Illustrator 24.1.1, SVG Export Plug-In . SVG Version: 6.00 Build 0)  -->
<svg version="1.1" id="Layer_1" xmlns="http://www.w3.org/2000/svg" xmlns:xlink="http://www.w3.org/1999/xlink" x="0px" y="0px"
	 viewBox="0 0 512 512" style="enable-background:new 0 0 512 512;" xml:space="preserve">
<g>
	<path d="M69.8,139.6v23.3h372.4c12.8,0,23.2,10.4,23.3,23.3v256c0,12.8-10.4,23.2-23.3,23.3H69.8c-12.8,0-23.2-10.4-23.3-23.3v-256
		c0-12.8,10.4-23.3,23.3-23.3V139.6v-23.3C31.2,116.4,0,147.6,0,186.2v256C0,480.8,31.2,512,69.8,512l372.4,0
		c38.6,0,69.8-31.3,69.8-69.8v-256c0-38.6-31.2-69.8-69.8-69.8H69.8V139.6z"/>
	<path d="M355.9,6.8L256,106.7L156.1,6.8c-9.1-9.1-23.8-9.1-32.9,0c-9.1,9.1-9.1,23.8,0,32.9l116.4,116.4c4.3,4.3,10.3,6.8,16.5,6.8
		c6.1,0,12.1-2.5,16.5-6.8L388.8,39.7c9.1-9.1,9.1-23.8,0-32.9S365-2.3,355.9,6.8L355.9,6.8z"/>
</g>
</svg>
